<?xml version="1.0" encoding="utf-8"?>
<!-- Generator: Adobe Illustrator 24.2.1, SVG Export Plug-In . SVG Version: 6.00 Build 0)  -->
<svg version="1.1" id="Layer_1" xmlns="http://www.w3.org/2000/svg" xmlns:xlink="http://www.w3.org/1999/xlink" x="0px" y="0px"
	 viewBox="0 0 78 78" style="enable-background:new 0 0 78 78;" xml:space="preserve">
<style type="text/css">
	.st0{fill:#2C2B2B;}
</style>
<g id="Layer_2_1_">
	<g id="Layer_1-2">
		<path class="st0" d="M36.6,0h4.6c0.2,0,0.4,0.1,0.6,0.1C47.2,0.5,52.4,2,57.2,4.5C70,11.7,77,22.7,77.9,37.3
			c0.4,6.9-1.1,13.8-4.5,19.9C66.2,70,55.3,76.9,40.6,77.9c-6.9,0.4-13.8-1.1-19.9-4.5C9.7,67.3,3,58.1,0.6,45.8
			c-0.3-1.5-0.4-3-0.6-4.5v-4.6c0-0.2,0.1-0.4,0.1-0.7C0.4,30.6,2,25.3,4.6,20.6c6.1-11,15.3-17.7,27.6-20.1
			C33.6,0.3,35.1,0.2,36.6,0z M10.4,56.4h17.3c1.5,0,3-0.1,4.4-0.4c3.5-0.8,6.2-2.7,7.4-6.2c0.8-2.4,0.8-5,0.1-7.5
			c-0.8-3.1-2.5-4.6-5.7-5.1c0.1,0,0.2-0.1,0.3-0.2c3.2-0.9,4.6-3.5,4.6-6.5c0.2-2.9-1.1-5.7-3.4-7.5c-2.1-1.4-4.6-2.1-7.1-2H10.4
			V56.4z M60.9,47.7c-0.1,1.5-1.1,2.8-2.5,3.2c-1.7,0.6-3.5,0.7-5.2,0.3c-2.7-0.6-4.4-3.2-4-5.9h18.4c-0.2-2-0.2-3.8-0.5-5.6
			c-0.8-4.4-3.1-7.8-7.6-9.1c-2.9-0.9-6-0.9-8.9,0c-2.5,0.6-4.6,2.1-6.1,4.2c-2.9,3.9-3.7,9-2.3,13.6c0.8,3.3,3,6,6.1,7.4
			c2.2,1,4.6,1.5,7,1.4c2.7,0.1,5.4-0.5,7.8-1.8c2.6-1.5,4.4-4.8,4-7.5C65,47.7,63,47.7,60.9,47.7z M62,23.1H47.5v4.3H62V23.1z"/>
		<path class="st0" d="M18.5,50v-9.4H28c2.8,0,4.3,1.5,4.5,4.3v1.4c-0.2,2.4-1.6,3.8-4,3.8c-3.2,0.1-6.4,0-9.6,0
			C18.8,50,18.7,50,18.5,50z"/>
		<path class="st0" d="M18.5,27.3h10c1.2-0.1,2.2,0.7,2.5,1.8c0.5,1.4,0.5,2.8,0,4.2c-0.2,1.1-1.2,1.8-2.3,1.8H18.5V27.3z"/>
		<path class="st0" d="M60.5,40.5H49c0.4-3.4,3.4-5.8,6.8-5.4C58.6,35.3,60.7,37.7,60.5,40.5z"/>
	</g>
</g>
</svg>
