<?xml version="1.0" encoding="utf-8"?>
<!-- Generator: Adobe Illustrator 24.2.1, SVG Export Plug-In . SVG Version: 6.00 Build 0)  -->
<svg version="1.1" id="Layer_1" xmlns="http://www.w3.org/2000/svg" xmlns:xlink="http://www.w3.org/1999/xlink" x="0px" y="0px"
	 viewBox="0 0 304.1 250" style="enable-background:new 0 0 304.1 250;" xml:space="preserve">
<style type="text/css">
	.st0{fill:#2C2B2B;}
</style>
<g id="Layer_2_1_">
	<g id="Layer_1-2">
		<path class="st0" d="M0,221.4c33.6,2.9,63.8-5.2,91.3-26c-28.9-2.7-47.8-17.2-58.6-44h27.1c0.1-0.4,0.2-0.9,0.2-1.3
			c-13.9-3.3-26.4-11.2-35.2-22.5c-9-11.2-13.8-25.2-13.7-39.6c8.8,4.2,17.5,7.3,27.8,7.4C23,82.6,13.1,67.1,11.5,47.2
			c-1-12.5,2.3-24.1,8.6-35.5c34,39.7,76.4,62.1,128,65.3c0-7-0.4-13.5,0.1-19.9c2.6-32.6,30.5-57.7,63.3-57.1
			c16.2,0.1,31.6,6.5,43.1,17.9c1.2,1.4,3.1,2,4.9,1.4c11.6-2.7,22.9-7,33.4-12.7c0.8-0.4,1.7-0.8,3.4-1.5
			c-4.4,13.9-13.6,25.7-25.9,33.5l0.6,1.2c10.9-3,21.8-6.1,33.1-9.2c-0.9,1.3-1.7,2.7-2.7,4c-7.1,9.8-15.6,18.5-25.3,25.8
			c-2.2,1.6-2.8,3.2-2.8,5.9c2.2,70.1-39.4,139.3-102.7,167.1c-57,25-113.3,21.7-167.6-9.4c-1-0.6-1.9-1.2-2.8-1.8
			C0.3,222.2,0.2,221.9,0,221.4z"/>
	</g>
</g>
</svg>
